<svg width="17.177307" height="15.173859" viewBox="0 0 17.1773 15.1739" xmlns="http://www.w3.org/2000/svg" xmlns:xlink="http://www.w3.org/1999/xlink">
	<desc>
			Created with Pixso.
	</desc>
	<defs/>
	<path id="Vector" d="M13.88 1.06418C13.3794 0.85675 12.8428 0.75 12.301 0.75C11.7591 0.75 11.2225 0.85675 10.7219 1.06418C10.2214 1.27161 9.76654 1.57562 9.38348 1.95886L8.58844 2.75388L7.79346 1.95886C7.01971 1.18509 5.97021 0.750397 4.87598 0.750397C3.78168 0.750397 2.73224 1.18509 1.9585 1.95886C1.18469 2.73264 0.75 3.7821 0.75 4.87637C0.75 5.97064 1.18469 7.02011 1.9585 7.79388L2.75348 8.58887L8.58844 14.4239L14.4235 8.58887L15.2184 7.79388C15.6017 7.4108 15.9057 6.95599 16.1132 6.45538C16.3206 5.9548 16.4273 5.41824 16.4273 4.87637C16.4273 4.3345 16.3206 3.79794 16.1132 3.29736C15.9057 2.79675 15.6017 2.34195 15.2184 1.95886C14.8354 1.57562 14.3806 1.27161 13.88 1.06418Z" stroke-opacity="0.800000" stroke-width="1.500000" stroke-linejoin="round"/>
</svg>
